<svg id="Layer_1" data-name="Layer 1" xmlns="http://www.w3.org/2000/svg" viewBox="0 0 132.41 153.39"><defs><style>.cls-1{fill:#0382e2;}</style></defs><title>81High Street</title><path class="cls-1" d="M358.71,342.2c-10.47-.25-19.13-11.93-18.78-25.33.28-10.54,8-18,18.57-17.91,10.92.1,20.64,12.43,20.39,25.86C378.69,336.12,371.28,342.5,358.71,342.2Z" transform="translate(-331.1 -276.98)"/><path class="cls-1" d="M430.16,281.54c-1.46-3.63-1-4.64,3-4.55,8.49.21,17,.13,25.5,0,2.84,0,4.27.76,4.26,3.94-.08,27,0,54,0,81l-1,.23c-4.25-10.75-8.53-21.5-12.75-32.27C442.79,313.77,436.62,297.59,430.16,281.54Z" transform="translate(-331.1 -276.98)"/><path class="cls-1" d="M356.23,408.87c-7.44,0-14.88.05-22.32,0-3.36,0-2.77-2.69-2.78-4.75q0-26.47,0-52.93c0-2.17,0-4.33,0-6.5,0-2.55.84-3,2.87-1.35a24.92,24.92,0,0,0,19.32,6c-9.77,7.91-13.85,18.13-13.34,30.19C340.47,391.8,346.11,401.29,356.23,408.87Z" transform="translate(-331.1 -276.98)"/><path class="cls-1" d="M462.89,404.79c.06,3-1,4.16-4,4.14-21.64-.08-43.28,0-64.92,0l-.63-1.08c12.69-5.16,22.29-13.12,25.87-26.85a37.7,37.7,0,0,0-1-23c-5.18-14.3-17.11-21.35-35-20.36,2.81-3.92,6.46-7,7.95-11.5,3.2-9.69,2.65-18.79-4.56-26.58s-16.16-11.06-26.62-9c-9.54,1.91-18.6,5.13-25.68,12.32-.63.65-1.27,1.89-2.38,1.18a3,3,0,0,1-.76-2.2c0-7.16,0-14.32,0-21.48,0-2.23.88-3.36,3.26-3.35q36.19.12,72.41.2c.08,0,.17.24.44.67a167.63,167.63,0,0,1-12.58,13.75c-.91.95-4,2.36-1.41,3.48,2.3,1,4.23,6.19,7.78,2.09s6.87-8.53,10.27-12.83c.62-.78,1.2-1.88,2.26-1.7s1.08,1.48,1.44,2.4q18.56,47.61,37.12,95.22c1.26,3.23,2.8,2.88,5.27,1.42,5-2.95,5.45-2.63,5.47,3.07C462.86,391.47,462.76,398.13,462.89,404.79Z" transform="translate(-331.1 -276.98)"/><path class="cls-1" d="M380.26,403.19c-3.94.54-7.7-1.29-11.08-3.8-10.75-8-16.33-24.6-12.94-37.56,3.91-15,26.47-21.75,36.7-10.27,8.11,9.1,12.87,19.5,11.28,31.78C402.45,397,394.58,403.24,380.26,403.19Z" transform="translate(-331.1 -276.98)"/><path class="cls-1" d="M399.21,425.59a3.75,3.75,0,0,1-3.41,3.69c-2.89.49-5.07-.43-6.42-3.2.6-.37.92-.72,1.09-.65,2,.77,4.41,3.79,5.94.85,1.66-3.19-2.39-2.42-3.92-3.32-1.69-1-3.17-2.08-2.73-4.22a3.89,3.89,0,0,1,3.52-3.07c2.47-.35,4.42.29,5.3,2.81-1.22,1-1.87.36-2.49-.13-1.4-1.1-2.92-1.46-3.63.45s1.18,1.88,2.39,2.26C397.1,421.78,399.44,422.47,399.21,425.59Z" transform="translate(-331.1 -276.98)"/><path class="cls-1" d="M443.94,427c2,.58,4.43-.44,7,1.51a12.68,12.68,0,0,1-7.94.3c-2.09-3.56-1.48-7.66-.63-11.06.95-3.83,4.75-1.58,7.58-1.63-.74,3.56-6.93-.46-5.92,4.8,1.57.31,3.32-.42,5,1-1.06,2.36-3.67.87-5.07,2.06C443.9,424.94,443.92,426,443.94,427Z" transform="translate(-331.1 -276.98)"/><path class="cls-1" d="M424.8,430c-6.79-6.63-6.79-6.63-8.95-.33a23.7,23.7,0,0,1-.47-12.64c.55-2.5,3.75-1.38,5.72-1.14,2.14.26,4.35,2.47,3.4,4C422.59,423,423.52,425.84,424.8,430Z" transform="translate(-331.1 -276.98)"/><path class="cls-1" d="M380,425.52c-.06,1.39.92,4.17-2.47,2.73-1.07-2.4-.1-7.49-5.5-4.15v5c-2.18-3.23-2.38-8-.87-12.94,1.53,1.4.64,3.15,1,4.59,3.77,1.29,5-.81,5.35-4C380.33,417.16,380.36,417.16,380,425.52Z" transform="translate(-331.1 -276.98)"/><path class="cls-1" d="M437.8,427.85c-2.56.92-3.55,1.27-4.77,1.27a19.31,19.31,0,0,1-3-.38,5.31,5.31,0,0,1-.6-2.22c-1-3.63-1.69-7.24,1.55-10.55,2-.16,4-.67,6.43.51-1.84,2.31-5,.36-6.22,2.64.17.64.34,1.28.52,1.93.31.37,1,1,.89,1.07C428.84,427.31,432,428.21,437.8,427.85Z" transform="translate(-331.1 -276.98)"/><path class="cls-1" d="M365,428c-3.21,1.37-6.51,2.74-9.16-.85-2.22-3-2.09-6.2,0-9.25a5,5,0,0,1,5.17-2.27,4.18,4.18,0,0,1,3.79,3.83c-2.56.73-4.15-3.92-6.7-.71-1.67,2.09-1.41,4.47-.67,6.6.66,1.86,2.44,2.63,4.51,1.7,2.27-2.37-1-2.83-1.74-4.18C365.49,421.74,365.67,422,365,428Z" transform="translate(-331.1 -276.98)"/><path class="cls-1" d="M458.14,429.27c-2.7-4.4,1.81-10.09-4.81-12.78a19,19,0,0,1,10.18-.06C456.18,419,460.84,424.92,458.14,429.27Z" transform="translate(-331.1 -276.98)"/><path class="cls-1" d="M349.22,416.6a21.1,21.1,0,0,1,.12,11.94A16,16,0,0,1,349.22,416.6Z" transform="translate(-331.1 -276.98)"/><path class="cls-1" d="M343.21,418.76c-.21,3.31.52,6.72-.64,10.55-2.43-1.66-1.61-3.55-1.73-5.15-6.15-3.81-4.27,3.15-6.72,6.21-1.27-5.71-1.29-10,.32-14.41,1.16,2.32,1.61,5.23,4.33,5.23a5.67,5.67,0,0,0,1.75-.32c.08-.65.15-1.3.26-1.94.16-1-.42-2.63,1.36-2.53C343.41,416.47,343.27,417.86,343.21,418.76Z" transform="translate(-331.1 -276.98)"/><path class="cls-1" d="M412.18,416.71c-5.3,1.41-4.11,4.75-4.33,7.64-.12,1.53,1.14,3.67-1.47,4.4-.07,0-.22-.17-.29-.29a3.23,3.23,0,0,1-.15-.47c0-3-.06-5.93-.08-8.89-.82-1.29-2.93-.7-3.59-2.74C405.17,415.19,408,415.36,412.18,416.71Z" transform="translate(-331.1 -276.98)"/></svg>