<?xml version="1.0" encoding="UTF-8" standalone="no"?>
<!DOCTYPE svg PUBLIC "-//W3C//DTD SVG 1.1//EN" "http://www.w3.org/Graphics/SVG/1.1/DTD/svg11.dtd">
<svg version="1.1" xmlns="http://www.w3.org/2000/svg" xmlns:xlink="http://www.w3.org/1999/xlink" preserveAspectRatio="xMidYMid meet" viewBox="0 0 640 640" width="640" height="640"><defs><path d="M167.22 570.44C167.14 562.98 168.72 557.7 172.04 554.31C175.88 550.39 178.22 549.56 184.25 549.87C190.58 550.17 193.67 551.9 196.08 556.65C197.82 560.04 197.82 559.97 195.25 560.64C193.6 561.02 193.14 560.72 192.09 558.46C190.35 554.84 187.42 553.11 183.12 553.11C178.67 553.11 175.96 554.99 173.55 559.59C171.96 562.53 171.81 563.73 172.04 570.44C172.34 578.66 173.47 581.75 177.24 584.61C180.18 586.72 185.3 587.1 188.17 585.29C190.66 583.71 192.84 579.79 193.52 575.64C193.55 575.47 193.7 574.62 193.97 573.08C190.72 573.08 188.91 573.08 188.55 573.08C183.72 573.08 183.19 572.93 183.19 571.57C183.19 570.14 183.72 570.06 190.35 570.06C190.83 570.06 193.22 570.06 197.51 570.06C197.51 575.94 197.51 579.21 197.51 579.86C197.51 589.13 197.44 589.66 196.01 589.66C194.8 589.66 194.5 589.13 194.5 587.02C194.5 584.01 193.82 583.71 192.39 585.97C191.18 587.93 185.83 590.41 182.82 590.34C181.61 590.34 179.28 589.89 177.62 589.28C170.91 586.87 167.22 580.24 167.22 570.44Z" id="dySMJUo1c"></path><path d="M294.66 583.48C294.56 583.29 294.06 582.33 293.16 580.62C294.38 580.16 295.06 579.91 295.19 579.86C297.3 579.03 298.51 579.41 298.51 580.92C298.51 581.45 299.49 582.8 300.77 584.01C304.99 588 313.88 587.17 315.99 582.5C317.12 580.01 316.14 575.64 314.11 574.21C313.21 573.61 309.66 572.17 306.2 571.04C302.5 569.91 298.96 568.18 297.75 567.05C293.53 563.13 294.06 555.14 298.73 551.83C300.62 550.47 302.35 550.02 306.8 549.87C311.7 549.64 312.75 549.79 315.01 551.37C317.43 552.96 320.97 557.7 320.29 558.38C320.14 558.53 319.08 558.83 317.95 559.14C316.22 559.59 315.77 559.29 314.71 557.25C311.25 550.62 299.26 552.05 299.26 559.14C299.26 563.06 301.67 565.32 307.78 567.13C310.79 568.03 314.49 569.39 315.99 570.22C323.15 573.76 322.7 584.01 315.32 588.38C312.38 590.04 305.89 590.64 302.35 589.59C298.43 588.38 296.32 586.72 294.66 583.48Z" id="b5B3rgu01b"></path><path d="M91.25 550.47L93.51 550.47L95.77 550.47L95.77 558.76L95.77 567.05L105.57 567.05L115.36 567.05L115.36 558.76L115.36 550.47L117.62 550.47L119.89 550.47L119.89 570.06L119.89 589.66L117.62 589.66L115.36 589.66L115.36 580.24L115.36 570.82L105.57 570.82L95.77 570.82L95.77 580.24L95.77 589.66L93.51 589.66L91.25 589.66L91.25 570.06L91.25 550.47Z" id="c2AQxzbkKk"></path><path d="M142.5 550.47L144.76 550.47L147.02 550.47L147.02 570.06L147.02 589.66L144.76 589.66L142.5 589.66L142.5 570.06L142.5 550.47Z" id="b183f1V0E5"></path><path d="M219.37 550.47L221.63 550.47L223.89 550.47L223.89 558.76L223.89 567.05L233.69 567.05L243.49 567.05L243.49 558.76L243.49 550.47L245.75 550.47L248.01 550.47L248.01 570.06L248.01 589.66L245.75 589.66L243.49 589.66L243.49 580.24L243.49 570.82L233.69 570.82L223.89 570.82L223.89 580.24L223.89 589.66L221.63 589.66L219.37 589.66L219.37 570.06L219.37 550.47Z" id="b4BzuBEE61"></path><path d="M349.01 553.48C345.39 553.48 343.38 553.48 342.98 553.48C337.47 553.48 336.95 553.33 336.95 551.98C336.95 550.54 337.47 550.47 351.64 550.47C365.81 550.47 366.34 550.54 366.34 551.98C366.34 553.33 365.81 553.48 359.93 553.48C359.51 553.48 357.37 553.48 353.53 553.48L353.53 571.57L353.53 589.66L351.27 589.66L349.01 589.66L349.01 571.57L349.01 553.48Z" id="aZcKwoMls"></path><path d="M385.18 550.47C390.88 550.47 394.05 550.47 394.68 550.47C401.91 550.47 404.78 550.77 406.74 551.67C413.75 554.99 412.99 566.22 405.53 569.31C405.39 569.37 404.69 569.67 403.42 570.22C406.09 575.78 407.57 578.87 407.87 579.49C410.28 584.61 412.31 588.98 412.31 589.21C412.31 589.43 411.33 589.66 410.05 589.66C408.02 589.66 407.64 589.13 403.35 580.24C403.04 579.61 401.54 576.47 398.82 570.82L393.92 570.82L388.95 570.82L388.95 580.24L388.95 589.66L387.07 589.66L385.18 589.66L385.18 570.06L385.18 550.47ZM407.04 560.27C407.04 558.31 406.51 557.03 405.08 555.67C403.35 554.09 402.37 553.86 396.04 553.63C395.56 553.61 393.2 553.51 388.95 553.33C388.95 557.36 388.95 559.59 388.95 560.04C388.95 563.73 389.18 567.05 389.48 567.28C390.23 568.11 398.82 567.88 401.91 567.05C405.38 566.07 407.04 563.81 407.04 560.27Z" id="b7IMRwoKQ9"></path><path d="M431.91 550.47C439.37 550.47 443.52 550.47 444.35 550.47C456.25 550.47 456.78 550.54 456.78 551.98C456.78 553.41 456.25 553.48 446.61 553.48C445.92 553.48 442.51 553.48 436.36 553.48L436.58 560.12L436.81 566.67C441.24 566.81 443.7 566.88 444.2 566.9C450.9 567.05 451.51 567.2 451.51 568.56C451.51 569.99 450.98 570.06 443.97 570.06C443.47 570.06 440.95 570.06 436.43 570.06L436.43 577.98L436.43 585.89L446.61 585.89L456.78 585.89L456.78 587.78L456.78 589.66L444.35 589.66L431.91 589.66L431.91 570.06L431.91 550.47Z" id="bhYl2obhe"></path><path d="M476.38 550.47C483.61 550.47 487.63 550.47 488.44 550.47C499.97 550.47 500.5 550.54 500.5 551.98C500.5 553.41 499.97 553.48 490.32 553.48C489.64 553.48 486.22 553.48 480.07 553.48L480.3 560.12L480.52 566.67C485.18 566.81 487.77 566.88 488.29 566.9C495.37 567.05 495.97 567.2 495.97 568.56C495.97 569.99 495.45 570.06 488.06 570.06C487.53 570.06 484.86 570.06 480.07 570.06L480.3 577.83L480.52 585.52L490.92 585.74L501.25 585.97L501.25 587.78L501.25 589.66L488.81 589.66L476.38 589.66L476.38 570.06L476.38 550.47Z" id="bUXnRltZ2"></path><path d="M528.76 553.86C525.05 553.72 522.99 553.65 522.58 553.63C516.93 553.41 516.32 553.26 516.32 551.98C516.32 550.54 516.93 550.47 531.02 550.47C545.19 550.47 545.72 550.54 545.72 551.98C545.72 553.33 545.19 553.48 539.69 553.48C539.29 553.48 537.28 553.48 533.66 553.48L533.66 571.57L533.66 589.66L531.4 589.66L529.14 589.66L528.98 571.8L528.76 553.86Z" id="axQES5u2Q"></path><path d="M79.41 525.07C78.13 523.11 78.06 517.31 77.83 402.97C77.75 336.95 77.83 282.91 78.06 282.91C78.21 282.91 81.6 285.4 85.52 288.49C99.91 299.72 113.1 306.73 127.35 310.65C133.6 312.3 136.09 312.61 145.89 312.61C146.64 312.61 150.41 312.64 157.19 312.68C154.3 315.39 152.69 316.9 152.37 317.2C138.05 330.47 130.14 340.79 122.6 355.94C105.26 390.54 105.34 439.15 122.82 474.8C131.79 493.11 147.39 511.73 164.96 525.07C167.07 526.65 168.87 528.16 168.87 528.31C168.87 528.91 84.01 528.46 82.43 527.86C81.52 527.48 80.17 526.28 79.41 525.07Z" id="a1KXwlFQV0"></path><path d="M317.95 520.77C355.56 494.7 381.49 467.49 393.47 441.56C400.56 426.26 403.57 412.32 403.5 394.83C403.5 378.55 400.93 363.86 394.9 345.84C382.47 308.69 355.03 282.91 317.73 273.57C305.44 270.47 298.36 269.72 282.53 269.72C269.64 269.72 267.83 269.57 268.36 268.59C268.74 267.99 272.81 262.71 277.41 256.91C292.18 238.44 295.42 232.64 299.26 217.87C303.11 202.72 303.93 191.26 301.9 178.07C298.89 157.95 289.92 140.92 274.31 125.77C255.02 107.08 229.77 96.75 203.17 96.75C178.97 96.75 141.29 107.83 117.4 121.85C107.9 127.5 96.75 135.94 89.96 142.73C84.16 148.53 81.82 149.43 79.34 146.95C78.21 145.82 78.06 141.59 77.83 102.93C77.6 55.6 77.68 54.7 82.05 51.83C83.33 50.93 85.89 50.02 87.63 49.8C89.44 49.57 150.33 49.65 223.06 49.87C231.88 49.91 275.94 50.08 355.26 50.4C352.55 54.02 351.04 56.03 350.74 56.43C341.09 69.17 312 100.22 304.84 105.27C299.56 109.04 298.89 111.37 302.2 114.01C303.56 115.07 306.72 117.85 309.29 120.19C318.18 128.33 322.1 129.91 327 127.35C330.09 125.69 332.27 123.13 351.94 98.26C374.63 69.54 373.88 70.37 376.67 70.37C379.38 70.37 380.96 72.03 381.94 76.02C382.69 78.96 400.78 125.39 472.99 309.29C492.81 359.64 510.82 405.76 513.08 411.72C521.15 433.12 521.9 433.65 536.67 428.37C551.22 423.1 554.31 423.1 555.97 428.3C556.57 430.03 556.8 444.95 556.65 476.16C556.57 517.31 556.42 521.68 555.29 523.86C552.58 528.99 562.07 528.61 428.52 528.61C361.97 528.61 307.55 528.46 307.55 528.31C307.55 528.16 312.23 524.77 317.95 520.77Z" id="h3yDEFl6Gy"></path><path d="M231.13 503.14C209.5 492.96 193.14 475.55 180.56 449.25C170.46 428.15 165.94 408.7 165.86 386.39C165.86 369.21 168.05 357.53 173.47 346.3C190.13 311.32 238.36 291.05 275.52 303.34C288.63 307.71 298.66 314.87 308 326.47C333.4 358.13 345.92 394.31 344.26 431.01C343.13 454.9 337.02 470.65 323.46 484.22C312.45 495.22 296.17 503.06 277.78 506.38C267.91 508.11 247.33 508.56 241.68 507.13C239.27 506.53 234.52 504.72 231.13 503.14Z" id="gA3dsPrWX"></path><path d="M470.5 148.75C462.21 127.43 451.05 98.79 445.63 85.07C440.28 71.43 435.6 58.76 435.3 57.03C434.85 54.24 435.08 53.64 436.73 51.91C437.79 50.85 439.37 50.02 440.35 49.95C441.33 49.95 466.05 49.87 495.37 49.87C554.46 49.95 552.58 49.8 555.36 54.85C556.57 57.03 556.65 67.21 556.65 206.41C556.65 339.96 556.49 355.94 555.44 358.28C554.61 360.09 554.16 360.54 553.86 359.79C531.92 306.43 521 278.77 470.5 148.75Z" id="idRMoA1jN"></path><path d="M137.9 267.84C124.48 254.72 116.42 239.2 111.82 218.02C110.77 213.19 110.46 208.37 110.46 197.74C110.46 185.53 110.69 183.05 112.2 177.39C117.17 159.31 128.25 145.21 144 137.15C162.62 127.58 183.5 126.75 200.98 134.81C223.52 145.21 241.68 169.41 248.84 198.5C250.42 204.75 250.65 207.54 250.65 220.73C250.65 237.99 249.74 242.66 244.09 254.27C241.53 259.47 239.65 261.96 234.07 267.46C226.53 275.07 219.9 279.07 209.2 282.38C198.95 285.62 182.21 287.21 172.34 285.85C159.83 284.19 148.53 278.24 137.9 267.84Z" id="b7scq3tVo"></path></defs><g><g><g><use xlink:href="#dySMJUo1c" opacity="1" fill="#ffffff" fill-opacity="1"></use><g><use xlink:href="#dySMJUo1c" opacity="1" fill-opacity="0" stroke="#000000" stroke-width="1" stroke-opacity="0"></use></g></g><g><use xlink:href="#b5B3rgu01b" opacity="1" fill="#ffffff" fill-opacity="1"></use><g><use xlink:href="#b5B3rgu01b" opacity="1" fill-opacity="0" stroke="#000000" stroke-width="1" stroke-opacity="0"></use></g></g><g><use xlink:href="#c2AQxzbkKk" opacity="1" fill="#ffffff" fill-opacity="1"></use><g><use xlink:href="#c2AQxzbkKk" opacity="1" fill-opacity="0" stroke="#000000" stroke-width="1" stroke-opacity="0"></use></g></g><g><use xlink:href="#b183f1V0E5" opacity="1" fill="#ffffff" fill-opacity="1"></use><g><use xlink:href="#b183f1V0E5" opacity="1" fill-opacity="0" stroke="#000000" stroke-width="1" stroke-opacity="0"></use></g></g><g><use xlink:href="#b4BzuBEE61" opacity="1" fill="#ffffff" fill-opacity="1"></use><g><use xlink:href="#b4BzuBEE61" opacity="1" fill-opacity="0" stroke="#000000" stroke-width="1" stroke-opacity="0"></use></g></g><g><use xlink:href="#aZcKwoMls" opacity="1" fill="#ffffff" fill-opacity="1"></use><g><use xlink:href="#aZcKwoMls" opacity="1" fill-opacity="0" stroke="#000000" stroke-width="1" stroke-opacity="0"></use></g></g><g><use xlink:href="#b7IMRwoKQ9" opacity="1" fill="#ffffff" fill-opacity="1"></use><g><use xlink:href="#b7IMRwoKQ9" opacity="1" fill-opacity="0" stroke="#000000" stroke-width="1" stroke-opacity="0"></use></g></g><g><use xlink:href="#bhYl2obhe" opacity="1" fill="#ffffff" fill-opacity="1"></use><g><use xlink:href="#bhYl2obhe" opacity="1" fill-opacity="0" stroke="#000000" stroke-width="1" stroke-opacity="0"></use></g></g><g><use xlink:href="#bUXnRltZ2" opacity="1" fill="#ffffff" fill-opacity="1"></use><g><use xlink:href="#bUXnRltZ2" opacity="1" fill-opacity="0" stroke="#000000" stroke-width="1" stroke-opacity="0"></use></g></g><g><use xlink:href="#axQES5u2Q" opacity="1" fill="#ffffff" fill-opacity="1"></use><g><use xlink:href="#axQES5u2Q" opacity="1" fill-opacity="0" stroke="#000000" stroke-width="1" stroke-opacity="0"></use></g></g><g><use xlink:href="#a1KXwlFQV0" opacity="1" fill="#ffffff" fill-opacity="1"></use><g><use xlink:href="#a1KXwlFQV0" opacity="1" fill-opacity="0" stroke="#000000" stroke-width="1" stroke-opacity="0"></use></g></g><g><use xlink:href="#h3yDEFl6Gy" opacity="1" fill="#ffffff" fill-opacity="1"></use><g><use xlink:href="#h3yDEFl6Gy" opacity="1" fill-opacity="0" stroke="#000000" stroke-width="1" stroke-opacity="0"></use></g></g><g><use xlink:href="#gA3dsPrWX" opacity="1" fill="#ffffff" fill-opacity="1"></use><g><use xlink:href="#gA3dsPrWX" opacity="1" fill-opacity="0" stroke="#000000" stroke-width="1" stroke-opacity="0"></use></g></g><g><use xlink:href="#idRMoA1jN" opacity="1" fill="#ffffff" fill-opacity="1"></use><g><use xlink:href="#idRMoA1jN" opacity="1" fill-opacity="0" stroke="#000000" stroke-width="1" stroke-opacity="0"></use></g></g><g><use xlink:href="#b7scq3tVo" opacity="1" fill="#ffffff" fill-opacity="1"></use><g><use xlink:href="#b7scq3tVo" opacity="1" fill-opacity="0" stroke="#000000" stroke-width="1" stroke-opacity="0"></use></g></g></g></g></svg>