<?xml version="1.0" encoding="UTF-8" standalone="no"?>
<!DOCTYPE svg PUBLIC "-//W3C//DTD SVG 1.1//EN" "http://www.w3.org/Graphics/SVG/1.1/DTD/svg11.dtd">
<svg version="1.1" xmlns="http://www.w3.org/2000/svg" xmlns:xlink="http://www.w3.org/1999/xlink" preserveAspectRatio="xMidYMid meet" viewBox="0 0 640 640" width="640" height="640"><defs><path d="M426.26 394.52C426.26 400.04 421.81 404.52 416.32 404.52C410.83 404.52 406.38 400.04 406.38 394.52C406.38 389.13 406.38 345.95 406.38 340.55C406.38 335.03 410.83 330.56 416.32 330.56C421.81 330.56 426.26 335.03 426.26 340.55C426.26 351.34 426.26 389.13 426.26 394.52Z" id="jFrS5LyyW"></path><path d="M426.26 394.52C426.26 400.04 421.81 404.52 416.32 404.52C416.32 397.12 416.32 337.95 416.32 330.56C421.81 330.56 426.26 335.03 426.26 340.55C426.26 351.34 426.26 389.13 426.26 394.52Z" id="bdEmuhPrS"></path><path d="M448.13 340.55C448.13 346.07 443.68 350.55 438.19 350.55C433.82 350.55 398.82 350.55 394.45 350.55C388.96 350.55 384.51 346.07 384.51 340.55C384.51 333.09 384.51 273.38 384.51 265.92C384.51 257.51 387.92 249.59 394.11 243.62C406.6 231.6 426.03 231.59 438.53 243.62C444.72 249.59 448.13 257.51 448.13 265.92C448.13 280.85 448.13 333.09 448.13 340.55Z" id="e6IrgS7w0Q"></path><path d="M448.13 340.55C448.13 346.07 443.68 350.55 438.19 350.55C436.73 350.55 429.44 350.55 416.32 350.55C416.32 280.98 416.32 242.33 416.32 234.6C433.55 234.6 448.13 248.6 448.13 265.92C448.13 280.85 448.13 333.09 448.13 340.55Z" id="a4K1JIgh50"></path><path d="M347.39 384.53C341.9 384.53 337.45 389 337.45 394.52C337.45 400.04 341.9 404.52 347.39 404.52C356.47 404.52 429.11 404.52 438.19 404.52C443.68 404.52 448.13 400.04 448.13 394.52C448.13 389 443.68 384.53 438.19 384.53C420.03 384.53 356.47 384.53 347.39 384.53Z" id="ah0XT7iz6"></path><path d="M362.64 404.52C216.3 404.52 135.01 404.52 118.75 404.52C113.26 404.52 108.81 400.04 108.81 394.52C108.81 362.41 108.81 105.47 108.81 73.35C108.81 67.83 113.26 63.35 118.75 63.35C142.14 63.35 329.3 63.35 352.7 63.35C358.18 63.35 362.64 67.83 362.64 73.35C362.64 117.5 362.64 227.89 362.64 404.52Z" id="a1XGnYbn84"></path><path d="M362.64 404.52L236.05 404.52L236.05 63.35C306.04 63.35 344.92 63.35 352.7 63.35C358.18 63.35 362.64 67.83 362.64 73.35C362.64 117.5 362.64 227.89 362.64 404.52Z" id="bpvlT4C0f"></path><path d="M161.83 106.66C156.34 106.66 151.89 111.14 151.89 116.66C151.89 120.92 151.89 155.04 151.89 159.31C151.89 164.83 156.34 169.3 161.83 169.3C167.13 169.3 209.54 169.3 214.85 169.3C220.34 169.3 224.79 164.83 224.79 159.31C224.79 155.04 224.79 120.92 224.79 116.66C224.79 111.14 220.34 106.66 214.85 106.66C204.24 106.66 167.13 106.66 161.83 106.66Z" id="bDcBZy1EH"></path><path d="M257.26 106.66C251.77 106.66 247.32 111.14 247.32 116.66C247.32 120.92 247.32 155.04 247.32 159.31C247.32 164.83 251.77 169.3 257.26 169.3C262.56 169.3 304.98 169.3 310.28 169.3C315.77 169.3 320.22 164.83 320.22 159.31C320.22 155.04 320.22 120.92 320.22 116.66C320.22 111.14 315.77 106.66 310.28 106.66C299.68 106.66 262.56 106.66 257.26 106.66Z" id="d11bDfSVrf"></path><path d="M257.26 191.96C251.77 191.96 247.32 196.43 247.32 201.95C247.32 206.22 247.32 240.33 247.32 244.6C247.32 250.12 251.77 254.59 257.26 254.59C262.56 254.59 304.98 254.59 310.28 254.59C315.77 254.59 320.22 250.12 320.22 244.6C320.22 240.33 320.22 206.22 320.22 201.95C320.22 196.43 315.77 191.96 310.28 191.96C299.68 191.96 262.56 191.96 257.26 191.96Z" id="j2kt2Q5zU"></path><path d="M161.83 191.96C156.34 191.96 151.89 196.43 151.89 201.95C151.89 206.22 151.89 240.33 151.89 244.6C151.89 250.12 156.34 254.59 161.83 254.59C167.13 254.59 209.54 254.59 214.85 254.59C220.34 254.59 224.79 250.12 224.79 244.6C224.79 240.33 224.79 206.22 224.79 201.95C224.79 196.43 220.34 191.96 214.85 191.96C204.24 191.96 167.13 191.96 161.83 191.96Z" id="iYJZezP5U"></path><path d="M151.89 361.87C151.89 364.72 151.89 378.93 151.89 404.52L171.77 404.52C171.77 378.93 171.77 364.72 171.77 361.87C171.77 356.36 167.31 351.88 161.83 351.88C156.34 351.88 151.89 356.36 151.89 361.87Z" id="c31n0ZQsPi"></path><path d="M300.34 361.87C300.34 364.72 300.34 378.93 300.34 404.52L320.22 404.52C320.22 378.93 320.22 364.72 320.22 361.87C320.22 356.36 315.77 351.88 310.28 351.88C304.79 351.88 300.34 356.36 300.34 361.87Z" id="a39wjOBUCe"></path><path d="M277.81 404.52L194.3 404.52C194.3 359.74 194.3 334.86 194.3 329.89C194.3 306.74 213.03 287.91 236.05 287.91C259.08 287.91 277.81 306.74 277.81 329.89C277.81 339.84 277.81 364.72 277.81 404.52Z" id="c28k1XO7Bu"></path><path d="M277.81 404.52L236.05 404.52C236.05 334.55 236.05 295.68 236.05 287.91C259.08 287.91 277.81 306.74 277.81 329.89C277.81 339.84 277.81 364.72 277.81 404.52Z" id="bwfYk9uzB"></path></defs><g><g><g><use xlink:href="#jFrS5LyyW" opacity="1" fill="#ff7038" fill-opacity="1"></use><g><use xlink:href="#jFrS5LyyW" opacity="1" fill-opacity="0" stroke="#000000" stroke-width="1" stroke-opacity="0"></use></g></g><g><use xlink:href="#bdEmuhPrS" opacity="1" fill="#cead29" fill-opacity="1"></use><g><use xlink:href="#bdEmuhPrS" opacity="1" fill-opacity="0" stroke="#000000" stroke-width="1" stroke-opacity="0"></use></g></g><g><use xlink:href="#e6IrgS7w0Q" opacity="1" fill="#96d750" fill-opacity="1"></use><g><use xlink:href="#e6IrgS7w0Q" opacity="1" fill-opacity="0" stroke="#000000" stroke-width="1" stroke-opacity="0"></use></g></g><g><use xlink:href="#a4K1JIgh50" opacity="1" fill="#80c03b" fill-opacity="1"></use><g><use xlink:href="#a4K1JIgh50" opacity="1" fill-opacity="0" stroke="#000000" stroke-width="1" stroke-opacity="0"></use></g></g><g><use xlink:href="#ah0XT7iz6" opacity="1" fill="#05303d" fill-opacity="1"></use><g><use xlink:href="#ah0XT7iz6" opacity="1" fill-opacity="0" stroke="#000000" stroke-width="1" stroke-opacity="0"></use></g></g><g><use xlink:href="#a1XGnYbn84" opacity="1" fill="#0a789b" fill-opacity="1"></use><g><use xlink:href="#a1XGnYbn84" opacity="1" fill-opacity="0" stroke="#000000" stroke-width="1" stroke-opacity="0"></use></g></g><g><use xlink:href="#bpvlT4C0f" opacity="1" fill="#08475e" fill-opacity="1"></use><g><use xlink:href="#bpvlT4C0f" opacity="1" fill-opacity="0" stroke="#000000" stroke-width="1" stroke-opacity="0"></use></g></g><g><use xlink:href="#bDcBZy1EH" opacity="1" fill="#e0eaef" fill-opacity="1"></use><g><use xlink:href="#bDcBZy1EH" opacity="1" fill-opacity="0" stroke="#000000" stroke-width="1" stroke-opacity="0"></use></g></g><g><use xlink:href="#d11bDfSVrf" opacity="1" fill="#cce0e5" fill-opacity="1"></use><g><use xlink:href="#d11bDfSVrf" opacity="1" fill-opacity="0" stroke="#000000" stroke-width="1" stroke-opacity="0"></use></g></g><g><use xlink:href="#j2kt2Q5zU" opacity="1" fill="#cce0e5" fill-opacity="1"></use><g><use xlink:href="#j2kt2Q5zU" opacity="1" fill-opacity="0" stroke="#000000" stroke-width="1" stroke-opacity="0"></use></g></g><g><use xlink:href="#iYJZezP5U" opacity="1" fill="#e0eaef" fill-opacity="1"></use><g><use xlink:href="#iYJZezP5U" opacity="1" fill-opacity="0" stroke="#000000" stroke-width="1" stroke-opacity="0"></use></g></g><g><use xlink:href="#c31n0ZQsPi" opacity="1" fill="#e0eaef" fill-opacity="1"></use><g><use xlink:href="#c31n0ZQsPi" opacity="1" fill-opacity="0" stroke="#000000" stroke-width="1" stroke-opacity="0"></use></g></g><g><use xlink:href="#a39wjOBUCe" opacity="1" fill="#cce0e5" fill-opacity="1"></use><g><use xlink:href="#a39wjOBUCe" opacity="1" fill-opacity="0" stroke="#000000" stroke-width="1" stroke-opacity="0"></use></g></g><g><use xlink:href="#c28k1XO7Bu" opacity="1" fill="#ffdd54" fill-opacity="1"></use><g><use xlink:href="#c28k1XO7Bu" opacity="1" fill-opacity="0" stroke="#000000" stroke-width="1" stroke-opacity="0"></use></g></g><g><use xlink:href="#bwfYk9uzB" opacity="1" fill="#ffb454" fill-opacity="1"></use><g><use xlink:href="#bwfYk9uzB" opacity="1" fill-opacity="0" stroke="#000000" stroke-width="1" stroke-opacity="0"></use></g></g></g></g></svg>